<svg width="32" height="32" viewBox="0 0 32 32" fill="none" xmlns="http://www.w3.org/2000/svg">
<path fill-rule="evenodd" clip-rule="evenodd" d="M9.73282 5.66667V4H11.5995V5.66667V6.375V6.58854V6.64648V6.64889V6.65115V6.65522V6.66154V6.66377V6.66537L10.6662 6.66667L9.73282 6.66665V6.66503V6.66154V6.65522V6.65115V6.64889V6.64648V6.58854V6.375V5.66667ZM21.3328 6.66667H10.6662H7.19949H5.33282V8.53333V26.1333V28H7.19949H24.7995H26.6662V26.1333V12.9333V11.0667V8.53333V6.66667H24.7995H21.3328ZM21.3328 6.66667L20.3995 6.66665V6.66503V6.66154V6.65522V6.65115V6.64889V6.64648V6.58854V6.375V5.66667V4H22.2662V5.66667V6.375V6.58854V6.64648V6.64889V6.65115V6.65522V6.66154V6.66377V6.66537L21.3328 6.66667ZM24.7995 8.53333H7.19949V11.0667H24.7995V8.53333ZM24.7995 12.9333H7.19949V26.1333H24.7995V12.9333ZM14.6662 17.8667H17.3328V15.7333H14.6662V17.8667ZM19.9995 20.6667V22.8H22.6662V20.6667H19.9995ZM22.6662 15.7333V17.8667H19.9995V15.7333H22.6662ZM11.9995 22.8V20.6667H9.33282V22.8H11.9995ZM9.33282 17.8667V15.7333H11.9995V17.8667H9.33282ZM14.6662 22.8H17.3328V20.6667H14.6662V22.8Z" fill="#293332"/>
</svg>
