<svg width="60" height="60" viewBox="0 0 60 60" fill="none" xmlns="http://www.w3.org/2000/svg">
<path fill-rule="evenodd" clip-rule="evenodd" d="M19 14C17.2051 14 15.75 15.4551 15.75 17.25V43.25C15.75 45.0449 17.2051 46.5 19 46.5H45C46.7949 46.5 48.25 45.0449 48.25 43.25V17.25C48.25 15.4551 46.7949 14 45 14H37.25H36H28H26.75H19ZM26.75 16.5H19C18.5858 16.5 18.25 16.8358 18.25 17.25V43.25C18.25 43.6642 18.5858 44 19 44H45C45.4142 44 45.75 43.6642 45.75 43.25V17.25C45.75 16.8358 45.4142 16.5 45 16.5H37.25V24.25C37.25 26.0449 35.7949 27.5 34 27.5H30C28.2051 27.5 26.75 26.0449 26.75 24.25V16.5ZM34.75 16.5H29.25V24.25C29.25 24.6642 29.5858 25 30 25H34C34.4142 25 34.75 24.6642 34.75 24.25V16.5Z" fill="white"/>
<path d="M12.0001 25.9999L6 32.0001M6 32.0001L12.0001 38.0001M6 32.0001L30 32.0001" stroke="white" stroke-width="2.5" stroke-linecap="round"/>
</svg>
