<svg width="60" height="60" viewBox="0 0 60 60" fill="none" xmlns="http://www.w3.org/2000/svg">
<path d="M23.7499 19.5L31.25 27.0002M31.25 27.0002L23.7499 34.5003M31.25 27.0002L2.5 27.0002" stroke="white" stroke-width="2.5" stroke-linecap="round"/>
<path d="M15 44.5C13.6739 44.5 12.4021 43.9732 11.4645 43.0355C10.5268 42.0979 10 40.8261 10 39.5V17C10 15.6739 10.5268 14.4021 11.4645 13.4645C12.4021 12.5268 13.6739 12 15 12H40C41.3261 12 42.5979 12.5268 43.5355 13.4645C44.4732 14.4021 45 15.6739 45 17V19.5H48.8C49.5494 19.5001 50.2892 19.6686 50.9647 19.9932C51.6402 20.3177 52.2341 20.79 52.7025 21.375L56.4025 26.0025C57.1127 26.8892 57.4998 27.9914 57.5 29.1275V39.5C57.5 40.8261 56.9732 42.0979 56.0355 43.0355C55.0979 43.9732 53.8261 44.5 52.5 44.5H50H28.75" stroke="white" stroke-width="2.5"/>
<path d="M48.8 24.5H45V34.5H52.5V29.125L48.8 24.5Z" stroke="white" stroke-width="2.5"/>
<path fill-rule="evenodd" clip-rule="evenodd" d="M17.5 44.5C17.5 47.2614 19.7386 49.5 22.5 49.5C25.2614 49.5 27.5 47.2614 27.5 44.5C27.5 41.7386 25.2614 39.5 22.5 39.5C19.7386 39.5 17.5 41.7386 17.5 44.5ZM22.5 52C18.3579 52 15 48.6421 15 44.5C15 40.3579 18.3579 37 22.5 37C26.6421 37 30 40.3579 30 44.5C30 48.6421 26.6421 52 22.5 52ZM43.75 52C42.7651 52 41.7898 51.806 40.8799 51.4291C39.9699 51.0522 39.1431 50.4997 38.4467 49.8033C37.7503 49.1069 37.1978 48.2801 36.8209 47.3701C36.444 46.4602 36.25 45.4849 36.25 44.5V43.25H37.5L43.75 43.25H50H51.25V44.5C51.25 45.4849 51.056 46.4602 50.6791 47.3701C50.3022 48.2801 49.7497 49.1069 49.0533 49.8033C48.3569 50.4997 47.5301 51.0522 46.6201 51.4291C45.7102 51.806 44.7349 52 43.75 52ZM41.8366 49.1194C42.4432 49.3707 43.0934 49.5 43.75 49.5C44.4066 49.5 45.0568 49.3707 45.6634 49.1194C46.27 48.8681 46.8212 48.4998 47.2855 48.0355C47.7498 47.5712 48.1181 47.02 48.3694 46.4134C48.4589 46.1972 48.533 45.9755 48.5912 45.75H43.75H38.9088C38.967 45.9755 39.0411 46.1972 39.1306 46.4134C39.3819 47.02 39.7502 47.5712 40.2145 48.0355C40.6788 48.4998 41.23 48.8681 41.8366 49.1194Z" fill="white"/>
</svg>
