<svg width="60" height="60" viewBox="0 0 60 60" fill="none" xmlns="http://www.w3.org/2000/svg">
<path fill-rule="evenodd" clip-rule="evenodd" d="M20.125 9.5C19.854 9.5 19.6042 9.64615 19.4713 9.88231L11.5963 23.8823C11.4679 24.1106 11.4679 24.3894 11.5963 24.6177L19.4713 38.6177C19.6042 38.8539 19.854 39 20.125 39H21.2502H38.7502H39.7856C40.0566 39 40.3065 38.8539 40.4393 38.6177L48.3143 24.6177C48.4427 24.3894 48.4427 24.1106 48.3143 23.8823L40.4393 9.8823C40.3065 9.64615 40.0566 9.5 39.7856 9.5H20.125ZM41.2502 41.1513C41.8163 40.8655 42.2965 40.4153 42.6182 39.8433L50.4932 25.8433C51.0497 24.854 51.0497 23.646 50.4932 22.6567L42.6182 8.65665C42.0426 7.6333 40.9597 7 39.7856 7H20.125C18.9509 7 17.868 7.6333 17.2924 8.65665L9.41738 22.6567C8.86087 23.646 8.86087 24.854 9.41738 25.8433L17.2924 39.8433C17.631 40.4454 18.1452 40.9124 18.7502 41.1949V53.4676C18.7502 55.9938 21.5061 57.5542 23.6723 56.2545L29.6144 52.6893C29.8519 52.5468 30.1486 52.5468 30.3861 52.6893L36.3281 56.2545C38.4943 57.5542 41.2502 55.9938 41.2502 53.4676V41.1513ZM38.7502 41.5H21.2502V53.4676C21.2502 54.0506 21.8862 54.4107 22.3861 54.1107L28.3281 50.5455C29.3573 49.928 30.6431 49.928 31.6723 50.5455L37.6144 54.1107C38.1142 54.4107 38.7502 54.0506 38.7502 53.4676V41.5ZM39.3989 19.0126C40.0823 19.696 40.0823 20.804 39.3989 21.4874L29.3989 31.4874C29.0707 31.8156 28.6256 32 28.1614 32C27.6973 32 27.2522 31.8156 26.924 31.4874L21.924 26.4874C21.2406 25.804 21.2406 24.696 21.924 24.0126C22.6074 23.3291 23.7154 23.3291 24.3989 24.0126L28.1614 27.7751L36.924 19.0126C37.6074 18.3291 38.7154 18.3291 39.3989 19.0126Z" fill="white"/>
</svg>
