<svg width="60" height="60" viewBox="0 0 60 60" fill="none" xmlns="http://www.w3.org/2000/svg">
<path fill-rule="evenodd" clip-rule="evenodd" d="M35.7197 11.25C35.7197 10.2835 36.5032 9.5 37.4697 9.5C38.4362 9.5 39.2197 10.2835 39.2197 11.25C39.2197 12.2165 38.4362 13 37.4697 13C36.5032 13 35.7197 12.2165 35.7197 11.25ZM37.4697 7C35.1225 7 33.2197 8.90279 33.2197 11.25C33.2197 13.1622 34.4826 14.7794 36.2197 15.3132V23H18.4697C16.1225 23 14.2197 24.9028 14.2197 27.25V39.1074C10.8113 39.6997 8.21973 42.6722 8.21973 46.25C8.21973 50.2541 11.4657 53.5 15.4697 53.5C19.0475 53.5 22.02 50.9084 22.6124 47.5H38.3271C38.9194 50.9084 41.8919 53.5 45.4697 53.5C49.4738 53.5 52.7197 50.2541 52.7197 46.25C52.7197 42.6722 50.1281 39.6997 46.7197 39.1074V27.25C46.7197 24.9028 44.8169 23 42.4697 23H38.7197V15.3132C40.4569 14.7794 41.7197 13.1622 41.7197 11.25C41.7197 8.90279 39.8169 7 37.4697 7ZM44.2197 39.1074V27.25C44.2197 26.2835 43.4362 25.5 42.4697 25.5H37.4697H18.4697C17.5032 25.5 16.7197 26.2835 16.7197 27.25V39.1074C19.722 39.6291 22.0906 41.9977 22.6124 45H38.3271C38.8489 41.9977 41.2174 39.6291 44.2197 39.1074ZM45.4697 41.5C42.8464 41.5 40.7197 43.6266 40.7197 46.25C40.7197 48.8734 42.8464 51 45.4697 51C48.0931 51 50.2197 48.8734 50.2197 46.25C50.2197 43.6266 48.0931 41.5 45.4697 41.5ZM15.4697 41.5C12.8464 41.5 10.7197 43.6266 10.7197 46.25C10.7197 48.8734 12.8464 51 15.4697 51C18.0931 51 20.2197 48.8734 20.2197 46.25C20.2197 43.6266 18.0931 41.5 15.4697 41.5Z" fill="white"/>
<path d="M29 19C25.134 19 22 15.4183 22 11C22 6.58172 25.134 3 29 3" stroke="white" stroke-width="2.5"/>
<path d="M30.5 15C28.567 15 27 13.2091 27 11C27 8.79086 28.567 7 30.5 7" stroke="white" stroke-width="2.5"/>
<rect x="39.2197" y="11" width="1" height="12" fill="#D9D9D9"/>
</svg>
